<?xml version="1.0" encoding="UTF-8" standalone="no"?>
<!-- Created with Inkscape (http://www.inkscape.org/) -->

<svg
   xmlns:dc="http://purl.org/dc/elements/1.1/"
   xmlns:cc="http://creativecommons.org/ns#"
   xmlns:rdf="http://www.w3.org/1999/02/22-rdf-syntax-ns#"
   xmlns:svg="http://www.w3.org/2000/svg"
   xmlns="http://www.w3.org/2000/svg"
   xmlns:xlink="http://www.w3.org/1999/xlink"
   xmlns:sodipodi="http://sodipodi.sourceforge.net/DTD/sodipodi-0.dtd"
   xmlns:inkscape="http://www.inkscape.org/namespaces/inkscape"
   width="210mm"
   height="297mm"
   viewBox="0 0 210 297"
   version="1.1"
   id="svg3926"
   inkscape:version="0.92.2 (unknown)"
   sodipodi:docname="escoria_logo.svg">
  <defs
     id="defs3920">
    <inkscape:perspective
       sodipodi:type="inkscape:persp3d"
       inkscape:vp_x="0 : 148.5 : 1"
       inkscape:vp_y="0 : 1000 : 0"
       inkscape:vp_z="210 : 148.5 : 1"
       inkscape:persp3d-origin="105 : 99 : 1"
       id="perspective4883" />
    <linearGradient
       inkscape:collect="always"
       id="linearGradient4283">
      <stop
         style="stop-color:#71c837;stop-opacity:1;"
         offset="0"
         id="stop4279" />
      <stop
         style="stop-color:#d4ff2a;stop-opacity:1"
         offset="1"
         id="stop4281" />
    </linearGradient>
    <linearGradient
       inkscape:collect="always"
       xlink:href="#linearGradient4283"
       id="linearGradient6342"
       gradientUnits="userSpaceOnUse"
       x1="-313.79291"
       y1="4263.0801"
       x2="-313.79291"
       y2="4156.5371" />
    <linearGradient
       inkscape:collect="always"
       xlink:href="#linearGradient4283"
       id="linearGradient6344"
       gradientUnits="userSpaceOnUse"
       x1="-313.79291"
       y1="4263.0801"
       x2="-313.79291"
       y2="4156.5371" />
    <linearGradient
       inkscape:collect="always"
       xlink:href="#linearGradient4283"
       id="linearGradient6346"
       gradientUnits="userSpaceOnUse"
       x1="-313.79291"
       y1="4263.0801"
       x2="-313.79291"
       y2="4156.5371" />
    <linearGradient
       inkscape:collect="always"
       xlink:href="#linearGradient4283"
       id="linearGradient6348"
       gradientUnits="userSpaceOnUse"
       x1="-313.79291"
       y1="4263.0801"
       x2="-313.79291"
       y2="4156.5371" />
    <linearGradient
       inkscape:collect="always"
       xlink:href="#linearGradient4283"
       id="linearGradient6350"
       gradientUnits="userSpaceOnUse"
       x1="-310.535"
       y1="4116.6665"
       x2="-607.86578"
       y2="4116.6665" />
    <linearGradient
       inkscape:collect="always"
       xlink:href="#linearGradient4283"
       id="linearGradient6352"
       gradientUnits="userSpaceOnUse"
       x1="-6179.8599"
       y1="6275.8198"
       x2="-6179.8599"
       y2="6166.0386" />
    <linearGradient
       inkscape:collect="always"
       xlink:href="#linearGradient4283"
       id="linearGradient6354"
       gradientUnits="userSpaceOnUse"
       x1="-6179.8599"
       y1="6275.8198"
       x2="-6179.8599"
       y2="6166.0386" />
    <linearGradient
       inkscape:collect="always"
       xlink:href="#linearGradient4283"
       id="linearGradient6356"
       gradientUnits="userSpaceOnUse"
       x1="-6179.8599"
       y1="6275.8198"
       x2="-6179.8599"
       y2="6166.0386" />
    <linearGradient
       inkscape:collect="always"
       xlink:href="#linearGradient4283"
       id="linearGradient6358"
       gradientUnits="userSpaceOnUse"
       x1="-6179.8599"
       y1="6275.8198"
       x2="-6179.8599"
       y2="6166.0386" />
    <linearGradient
       inkscape:collect="always"
       xlink:href="#linearGradient4283"
       id="linearGradient1300"
       gradientUnits="userSpaceOnUse"
       x1="-310.535"
       y1="4116.6665"
       x2="-607.86578"
       y2="4116.6665" />
    <linearGradient
       inkscape:collect="always"
       xlink:href="#linearGradient4283"
       id="linearGradient1370"
       gradientUnits="userSpaceOnUse"
       x1="-310.535"
       y1="4116.6665"
       x2="-607.86578"
       y2="4116.6665" />
  </defs>
  <sodipodi:namedview
     id="base"
     pagecolor="#ffffff"
     bordercolor="#666666"
     borderopacity="1.0"
     inkscape:pageopacity="0.0"
     inkscape:pageshadow="2"
     inkscape:zoom="0.11313708"
     inkscape:cx="309.63405"
     inkscape:cy="525.46506"
     inkscape:document-units="mm"
     inkscape:current-layer="layer1"
     showgrid="false"
     showborder="false"
     inkscape:window-width="1641"
     inkscape:window-height="995"
     inkscape:window-x="39"
     inkscape:window-y="27"
     inkscape:window-maximized="1"
     inkscape:lockguides="false" />
  <metadata
     id="metadata3923">
    <rdf:RDF>
      <cc:Work
         rdf:about="">
        <dc:format>image/svg+xml</dc:format>
        <dc:type
           rdf:resource="http://purl.org/dc/dcmitype/StillImage" />
        <dc:title />
      </cc:Work>
    </rdf:RDF>
  </metadata>
  <g
     inkscape:label="Layer 1"
     inkscape:groupmode="layer"
     id="layer1">
    <rect
       style="opacity:0.50899999;fill:none;fill-opacity:1;fill-rule:nonzero;stroke:#ff0000;stroke-width:3.0587821;stroke-linejoin:round;stroke-miterlimit:4;stroke-dasharray:none;stroke-dashoffset:0;stroke-opacity:1"
       id="rect4471"
       width="690.93744"
       height="290.39264"
       x="-492.16605"
       y="-105.54419" />
    <g
       id="g1885"
       transform="matrix(0.58267536,0,0,0.58267536,15.656304,-914.40014)" />
    <g
       transform="matrix(1.9244583,0,0,1.9244583,-58.446902,-1925.0775)"
       id="g2198">
      <flowRoot
         xml:space="preserve"
         id="flowRoot1729"
         style="font-style:normal;font-variant:normal;font-weight:normal;font-stretch:normal;font-size:40px;line-height:1;font-family:Jellee;-inkscape-font-specification:Jellee;letter-spacing:0px;word-spacing:0px;fill:#d4ff2a;fill-opacity:1;stroke:#1b2f0d;stroke-width:56.69291306;stroke-linejoin:round;stroke-miterlimit:4;stroke-dasharray:none;stroke-opacity:1"
         transform="matrix(0.26458333,0,0,0.26458333,1519.0252,-612.12873)"><flowRegion
           style="fill:#d4ff2a;fill-opacity:1;stroke:#1b2f0d;stroke-width:56.69291306;stroke-linejoin:round;stroke-miterlimit:4;stroke-dasharray:none;stroke-opacity:1"
           id="flowRegion1725"><rect
             style="fill:#d4ff2a;fill-opacity:1;stroke:#1b2f0d;stroke-width:56.69291306;stroke-linejoin:round;stroke-miterlimit:4;stroke-dasharray:none;stroke-opacity:1"
             id="rect1723"
             width="2296.6829"
             height="605.28339"
             x="-6363.9609"
             y="6123.1787" /></flowRegion><flowPara
           id="flowPara1727"
           style="font-style:normal;font-variant:normal;font-weight:normal;font-stretch:normal;font-size:192px;font-family:Jellee;-inkscape-font-specification:Jellee;fill:#d4ff2a;fill-opacity:1;stroke:#1b2f0d;stroke-width:56.69291306;stroke-linejoin:round;stroke-miterlimit:4;stroke-dasharray:none;stroke-opacity:1">ESC</flowPara></flowRoot>      <flowRoot
         xml:space="preserve"
         id="flowRoot1737"
         style="font-style:normal;font-variant:normal;font-weight:normal;font-stretch:normal;font-size:40px;line-height:1;font-family:Jellee;-inkscape-font-specification:Jellee;letter-spacing:0px;word-spacing:0px;fill:#d4ff2a;fill-opacity:1;stroke:#1b2f0d;stroke-width:56.69291306;stroke-linejoin:round;stroke-miterlimit:4;stroke-dasharray:none;stroke-opacity:1"
         transform="matrix(0.26458333,0,0,0.26458333,109.17355,-80.073949)"><flowRegion
           id="flowRegion1733"
           style="fill:#d4ff2a;fill-opacity:1;stroke:#1b2f0d;stroke-width:56.69291306;stroke-linejoin:round;stroke-miterlimit:4;stroke-dasharray:none;stroke-opacity:1"><rect
             id="rect1731"
             width="548.71484"
             height="203.64674"
             x="-478.00418"
             y="4112.167"
             style="fill:#d4ff2a;fill-opacity:1;stroke:#1b2f0d;stroke-width:56.69291306;stroke-linejoin:round;stroke-miterlimit:4;stroke-dasharray:none;stroke-opacity:1" /></flowRegion><flowPara
           id="flowPara1735"
           style="font-size:192px;stroke:#1b2f0d;stroke-width:56.69291306;stroke-linejoin:round;stroke-miterlimit:4;stroke-dasharray:none;stroke-opacity:1">RIA</flowPara></flowRoot>      <g
         aria-label="RIA"
         transform="matrix(0.26458333,0,0,0.26458333,109.17355,-80.073949)"
         style="font-style:normal;font-variant:normal;font-weight:normal;font-stretch:normal;font-size:40px;line-height:1;font-family:Jellee;-inkscape-font-specification:Jellee;letter-spacing:0px;word-spacing:0px;fill:url(#linearGradient6348);fill-opacity:1;stroke:#1b2f0d;stroke-opacity:1"
         id="flowRoot1715">
        <path
           inkscape:connector-curvature="0"
           d="m -447.47591,4263.08 q -7.68,0 -13.056,-5.376 -5.376,-5.376 -5.376,-13.056 v -111.744 q 0,-7.872 4.224,-12.096 4.224,-4.224 12.096,-4.224 h 47.04 q 24.96,0 39.168,11.712 14.4,11.52 14.4,32.64 0,14.016 -6.72,24.576 -6.72,10.56 -19.008,16.512 v 0.384 l 18.048,34.752 q 2.112,3.648 2.112,8.256 0,7.296 -5.184,12.48 -5.184,5.184 -12.672,5.184 -4.992,0 -9.408,-2.496 -4.224,-2.688 -6.336,-7.104 l -21.504,-41.472 h -19.392 v 32.64 q 0,7.68 -5.376,13.056 -5.376,5.376 -13.056,5.376 z m 37.056,-80.256 q 10.752,0 17.088,-4.224 6.528,-4.224 6.528,-15.168 0,-11.328 -6.336,-15.552 -6.336,-4.224 -17.28,-4.224 h -18.624 v 39.168 z"
           style="font-size:192px;fill:url(#linearGradient6342);fill-opacity:1;stroke:#1b2f0d;stroke-opacity:1"
           id="path2076" />
        <path
           inkscape:connector-curvature="0"
           d="m -313.79291,4263.08 q -7.68,0 -13.056,-5.376 -5.376,-5.376 -5.376,-13.056 V 4133.48 q 0,-7.68 5.376,-13.056 5.376,-5.376 13.056,-5.376 7.68,0 13.056,5.376 5.376,5.376 5.376,13.056 v 111.168 q 0,7.68 -5.376,13.056 -5.376,5.376 -13.056,5.376 z"
           style="font-size:192px;fill:url(#linearGradient6344);fill-opacity:1;stroke:#1b2f0d;stroke-opacity:1"
           id="path2078" />
        <path
           inkscape:connector-curvature="0"
           d="m -263.79491,4263.08 q -6.912,0 -11.904,-4.8 -4.8,-4.992 -4.8,-11.904 0,-2.496 0.96,-5.376 l 36.48,-105.6 q 3.072,-9.024 10.944,-14.592 7.872,-5.76 17.856,-5.76 9.792,0 17.664,5.76 7.872,5.568 10.944,14.592 l 36.096,104.448 q 0.96,3.264 0.96,5.76 0,7.104 -5.184,12.288 -4.992,5.184 -12.288,5.184 -5.76,0 -10.368,-3.264 -4.608,-3.456 -6.336,-8.832 l -6.336,-20.16 h -52.224 l -6.336,20.544 q -1.536,5.184 -5.952,8.448 -4.416,3.264 -10.176,3.264 z m 65.664,-60.672 -9.216,-29.376 q -2.88,-9.216 -4.8,-16.896 l -1.92,-7.488 h -2.304 l -1.92,7.488 q -1.92,7.68 -4.8,16.896 l -9.216,29.376 z"
           style="font-size:192px;fill:url(#linearGradient6346);fill-opacity:1;stroke:#1b2f0d;stroke-opacity:1"
           id="path2080" />
      </g>
      <g
         id="g1908"
         transform="matrix(0.59424771,1.0292672,-1.0292672,0.59424771,1156.6208,812.41899)">
        <path
           id="path1869"
           transform="matrix(0.0674036,0,0,0.0674036,-306.71149,683.99286)"
           d="m -548.03711,3773.5391 a 344.24474,337.98426 0 0 1 17.03125,0.8359 c -0.31189,-0.024 -0.6226,-0.052 -0.93555,-0.072 -1.76454,-0.116 -3.53934,-0.1977 -5.31054,-0.2929 -1.53249,-0.082 -3.06037,-0.1812 -4.59766,-0.2481 -0.0227,0 -0.0338,-6e-4 -0.0527,0 -2.04041,-0.089 -4.08551,-0.1589 -6.13477,-0.2207 z"
           style="opacity:1;fill:#c83737;fill-opacity:1;stroke:none;stroke-width:6.79609203;stroke-miterlimit:4;stroke-dasharray:none;stroke-dashoffset:0;stroke-opacity:1"
           inkscape:connector-curvature="0" />
        <path
           id="path1871"
           transform="matrix(0.0674036,0,0,0.0674036,-306.71149,683.99286)"
           d="m -499.00391,4444.8438 a 344.24474,337.98426 0 0 1 -19.28906,2.2988 c 0.0599,-0.01 0.11976,-0.012 0.17969,-0.018 1.83269,-0.1776 3.66935,-0.3446 5.49414,-0.5449 1.81478,-0.2003 3.61714,-0.4336 5.42383,-0.6543 1.37782,-0.1701 2.7599,-0.3236 4.13281,-0.5039 1.35772,-0.1788 2.7072,-0.3817 4.05859,-0.5781 z"
           style="opacity:1;fill:#c83737;fill-opacity:1;stroke:none;stroke-width:6.79609203;stroke-miterlimit:4;stroke-dasharray:none;stroke-dashoffset:0;stroke-opacity:1"
           inkscape:connector-curvature="0" />
        <path
           style="opacity:1;fill:#c83737;fill-opacity:1;stroke:none;stroke-width:6.79609203;stroke-miterlimit:4;stroke-dasharray:none;stroke-dashoffset:0;stroke-opacity:1"
           d="m -548.03711,3773.5391 a 344.24474,337.98426 0 0 1 17.03125,0.8359 c -0.31189,-0.024 -0.6226,-0.052 -0.93555,-0.072 -1.76454,-0.116 -3.53934,-0.1977 -5.31054,-0.2929 -1.53249,-0.082 -3.06037,-0.1812 -4.59766,-0.2481 -0.0227,0 -0.0338,-6e-4 -0.0527,0 -2.04041,-0.089 -4.08551,-0.1589 -6.13477,-0.2207 z"
           transform="matrix(0.0674036,0,0,0.0674036,-306.71149,683.99286)"
           id="path1875"
           inkscape:connector-curvature="0" />
        <path
           style="opacity:1;fill:#c83737;fill-opacity:1;stroke:none;stroke-width:6.79609203;stroke-miterlimit:4;stroke-dasharray:none;stroke-dashoffset:0;stroke-opacity:1"
           d="m -499.00391,4444.8438 a 344.24474,337.98426 0 0 1 -19.28906,2.2988 c 0.0599,-0.01 0.11976,-0.012 0.17969,-0.018 1.83269,-0.1776 3.66935,-0.3446 5.49414,-0.5449 1.81478,-0.2003 3.61714,-0.4336 5.42383,-0.6543 1.37782,-0.1701 2.7599,-0.3236 4.13281,-0.5039 1.35772,-0.1788 2.7072,-0.3817 4.05859,-0.5781 z"
           transform="matrix(0.0674036,0,0,0.0674036,-306.71149,683.99286)"
           id="path1877"
           inkscape:connector-curvature="0" />
        <path
           inkscape:connector-curvature="0"
           id="path1881"
           transform="matrix(0.25475377,0,0,0.25475377,-306.71149,683.99286)"
           style="opacity:1;fill:#1b2f0d;fill-opacity:1;stroke:none;stroke-width:1.79813266;stroke-miterlimit:4;stroke-dasharray:none;stroke-dashoffset:0;stroke-opacity:1"
           d="m -342.56353,1151.6482 c -7.0772,0 -12.7748,5.6975 -12.7748,12.7748 0,7.0772 5.6976,12.7747 12.7748,12.7747 h 13.2842 c 7.0773,0 12.7748,-5.6975 12.7748,-12.7748 0,-7.0772 -5.6975,-12.7747 -12.7748,-12.7747 z m 0,-153.30048 c -7.0772,-2e-5 -12.7748,5.69758 -12.7748,12.77478 0,7.0772 5.6976,12.7748 12.7748,12.7748 h 13.2843 c 7.0772,0 12.7747,-5.6976 12.7747,-12.7748 0,-7.0772 -5.6975,-12.77478 -12.7747,-12.7748 z m 64.35054,10e-5 -8.85836,0.003 c -8.72831,0 -15.75512,5.69718 -15.75512,12.77438 0,7.0772 7.02681,12.775 15.75512,12.775 h 8.85836 14.96602 c 8.72832,0 15.75511,5.6976 15.75511,12.7749 -2e-5,7.0772 -7.02682,12.7744 -15.75511,12.7744 h -78.04123 -7.32203 c -8.72831,0 -15.75512,5.6977 -15.75512,12.7749 0,7.0772 7.02681,12.7749 15.75512,12.7749 h 7.32203 6.89364 c 8.72828,0 15.75511,5.6978 15.75511,12.775 0,7.0772 -7.02683,12.7745 -15.75511,12.7744 h -6.77686 -7.32202 c -8.72831,0 -15.75512,5.6977 -15.75512,12.7749 0,7.0773 7.02681,12.775 15.75512,12.775 h 7.32202 92.99861 c 8.72831,0 15.75511,5.6972 15.75512,12.7744 0,7.0772 -7.02681,12.7749 -15.75512,12.7749 h -8.92193 -10.81898 c -8.7282,0 -15.75511,5.6976 -15.75511,12.7749 0,7.0772 7.02691,12.7744 15.75511,12.7744 h 10.81898 40.33604 68.16829 c 0.62444,0 1.24701,-0.01 1.86862,-0.016 0.1154,0.01 0.23081,0.012 0.34623,0.017 50.302833,0 91.081283,-40.037 91.081262,-89.425 2.1e-5,-49.388 -40.778429,-89.42493 -91.081262,-89.42501 -0.22706,0.007 -0.45409,0.0151 -0.68109,0.0238 -8e-4,0 -0.002,3e-5 -0.003,0 -0.50883,-0.007 -1.0184,-0.0109 -1.52911,-0.0109 h -83.24395 z m 40.75566,89.42508 c 0.003,2.0372 0.0763,4.0737 0.22065,6.106 -0.14437,-2.0323 -0.21796,-4.0688 -0.22065,-6.106 z m 0.8108,11.036 c 0.13325,1.3242 0.29658,2.6454 0.48989,3.9625 -0.19331,-1.3171 -0.35664,-2.6383 -0.48989,-3.9625 z m 1.67741,9.2495 c 0.23768,1.1446 0.49819,2.2844 0.78135,3.419 -0.28316,-1.1346 -0.54367,-2.2744 -0.78135,-3.419 z m 2.61793,8.9153 c 0.31876,1.0001 15.72957,1.9947 16.08393,2.9832 -0.35436,-0.9885 -15.76517,-1.9831 -16.08393,-2.9832 z m 18.64036,8.6485 c 0.36472,0.8342 0.74234,1.6628 1.13275,2.4856 -0.39041,-0.8228 -0.76803,-1.6514 -1.13275,-2.4856 z m 4.50361,8.3054 c 0.36769,0.6478 0.74358,1.2911 1.12757,1.9297 -0.38399,-0.6386 -0.75988,-1.2819 -1.12757,-1.9297 z m -9.82333,7.6368 c 0.37594,0.5279 0.75768,1.0517 1.14515,1.5715 -0.38747,-0.5198 -0.76921,-1.0436 -1.14515,-1.5715 z m 6.0849,7.1339 c 0.34214,0.3892 0.6877,0.7754 1.03662,1.1586 -0.34892,-0.3832 -0.69448,-0.7694 -1.03662,-1.1586 z m 6.69313,6.3723 c 0.32401,0.3008 0.65027,0.5993 0.97875,0.8955 -0.32848,-0.2962 -0.65474,-0.5947 -0.97875,-0.8955 z m 7.34684,5.6859 c 0.28312,0.2137 0.56751,0.4257 0.85317,0.6361 -0.28566,-0.2104 -0.57005,-0.4224 -0.85317,-0.6361 z m 8.00933,4.9801 c 0.19145,0.1163 0.38334,0.2318 0.57567,0.3467 -0.19233,-0.1149 -0.38422,-0.2304 -0.57567,-0.3467 z m 8.25944,4.0261 c 0.16529,0.079 0.33083,0.1576 0.49661,0.2356 -0.16578,-0.078 -0.33132,-0.1566 -0.49661,-0.2356 z m 8.78138,3.2391 c 0.0818,0.03 0.1636,0.059 0.24546,0.088 -0.0819,-0.029 -0.16369,-0.059 -0.24546,-0.088 z m 8.79843,2.2665 c 0.0868,0.022 0.17359,0.043 0.26044,0.065 -0.0868,-0.022 -0.17366,-0.043 -0.26044,-0.065 z m 9.09866,1.4097 0.154,0.023 z" />
        <path
           transform="matrix(0.0674036,0,0,0.0674036,-306.71149,683.99286)"
           id="path1883"
           d="m -548.98438,3869.0234 c -6.41901,0.032 -12.83422,0.3183 -19.23046,0.8594 -0.4722,-0.014 -0.94238,-0.035 -1.41797,-0.035 h -204.81765 c -26.74885,0 -48.28321,21.5347 -48.28321,48.2832 0,26.7484 21.53436,48.2832 48.28321,48.2832 h 15.24218 -22.51475 33.61133 c 26.74885,0 48.2832,21.5327 48.2832,48.2812 0,26.7489 -21.53435,48.2832 -48.2832,48.2832 h -5.55166 l -0.002,0.012 h -136.92063 c -26.74885,0 -48.2832,21.5348 -48.2832,48.2832 0,26.7485 21.53435,48.2832 48.2832,48.2832 h 147.23808 12.12305 3.3027 c 26.74885,0 48.28321,21.5328 48.28321,48.2813 0,26.7488 -21.53436,48.2832 -48.28321,48.2832 h -15.42575 -8.91601 c -26.74885,0 -48.28321,21.5347 -48.28321,48.2832 0,26.7485 21.53436,48.2812 48.28321,48.2812 h 182.63106 c 0.88706,0 1.76758,-0.027 2.64258,-0.074 5.9887,0.5234 11.99481,0.8238 18.00585,0.9004 133.7876,-3e-4 242.2438,-108.4565 242.24415,-242.2441 -2.9e-4,-133.7876 -108.45651,-242.2439 -242.24415,-242.2442 z m -535.34762,193.9668 c -26.7489,0 -48.2832,21.5348 -48.2832,48.2832 0,26.7485 21.5343,48.2832 48.2832,48.2832 h 45.1797 c 26.7484,0 48.28323,-21.5347 48.28316,-48.2832 7e-5,-26.7484 -21.53476,-48.2832 -48.28316,-48.2832 z"
           style="opacity:1;fill:url(#linearGradient6350);fill-opacity:1;stroke:none;stroke-width:2.8148098;stroke-miterlimit:4;stroke-dasharray:none;stroke-dashoffset:0;stroke-opacity:1"
           inkscape:connector-curvature="0"
           sodipodi:nodetypes="ccssssccsssccsssccssccsssscccccsssscss" />
      </g>
      <g
         aria-label="ESC"
         transform="matrix(0.26458333,0,0,0.26458333,1519.0252,-612.12873)"
         style="font-style:normal;font-variant:normal;font-weight:normal;font-stretch:normal;font-size:40px;line-height:1;font-family:Jellee;-inkscape-font-specification:Jellee;letter-spacing:0px;word-spacing:0px;fill:url(#linearGradient6358);fill-opacity:1;stroke:none"
         id="flowRoot1713">
        <path
           inkscape:connector-curvature="0"
           d="m -6335.5449,6272.5557 q -7.872,0 -12.096,-4.224 -4.224,-4.224 -4.224,-12.096 v -112.32 q 0,-7.872 4.224,-12.096 4.224,-4.224 12.096,-4.224 h 70.656 q 6.144,0 10.368,4.416 4.416,4.416 4.416,10.56 0,5.952 -4.416,10.368 -4.224,4.416 -10.368,4.416 h -50.496 v 28.224 h 41.664 q 5.952,0 10.176,4.224 4.224,4.224 4.224,10.176 0,5.952 -4.224,10.368 -4.224,4.224 -10.176,4.224 h -41.664 v 28.224 h 54.336 q 6.144,0 10.368,4.416 4.416,4.224 4.416,10.368 0,6.144 -4.416,10.56 -4.224,4.416 -10.368,4.416 z"
           style="font-style:normal;font-variant:normal;font-weight:normal;font-stretch:normal;font-size:192px;font-family:Jellee;-inkscape-font-specification:Jellee;fill:url(#linearGradient6352);fill-opacity:1"
           id="path2069" />
        <path
           inkscape:connector-curvature="0"
           d="m -6179.8599,6275.8197 q -15.936,0 -28.8,-4.608 -12.864,-4.608 -21.504,-12.672 -2.304,-2.304 -3.648,-5.76 -1.344,-3.648 -1.344,-7.488 0,-7.296 5.184,-12.288 5.184,-5.184 12.288,-5.184 4.608,0 8.448,2.304 3.84,2.112 6.144,5.76 3.84,5.76 9.984,8.832 6.144,2.88 14.016,2.88 11.52,0 17.28,-4.224 5.76,-4.224 5.76,-11.52 0,-5.568 -3.84,-9.216 -3.84,-3.84 -13.632,-5.952 l -23.616,-4.992 q -20.352,-4.416 -30.336,-14.784 -9.792,-10.56 -9.792,-28.224 0,-12.672 6.72,-22.848 6.912,-10.176 19.968,-15.936 13.056,-5.76 31.104,-5.76 29.376,0 45.696,15.36 4.8,4.608 4.8,12.672 0,6.912 -4.992,11.904 -4.8,4.992 -11.712,4.992 -4.416,0 -8.256,-2.112 -3.648,-2.304 -5.952,-5.76 -5.952,-9.6 -19.776,-9.6 -10.56,0 -15.552,3.84 -4.992,3.84 -4.992,9.408 0,5.76 3.84,9.6 4.032,3.84 14.4,5.952 l 23.424,4.992 q 21.504,4.608 31.296,15.36 9.792,10.752 9.792,27.648 0,13.056 -6.336,23.808 -6.144,10.56 -20.16,17.088 -14.016,6.528 -35.904,6.528 z"
           style="font-style:normal;font-variant:normal;font-weight:normal;font-stretch:normal;font-size:192px;font-family:Jellee;-inkscape-font-specification:Jellee;fill:url(#linearGradient6354);fill-opacity:1"
           id="path2071" />
        <path
           inkscape:connector-curvature="0"
           d="m -6036.6609,6275.8197 q -34.56,0 -52.8,-19.584 -18.24,-19.776 -18.24,-54.912 0,-22.656 8.64,-39.936 8.832,-17.472 24.768,-27.072 16.128,-9.792 37.632,-9.792 17.664,0 31.104,5.76 13.44,5.568 21.888,15.936 3.456,4.032 3.456,11.328 0,7.296 -5.184,12.48 -4.992,4.992 -12.288,4.992 -4.608,0 -8.832,-2.304 -4.032,-2.304 -6.336,-6.144 -7.68,-13.056 -23.808,-13.056 -14.592,0 -23.424,11.52 -8.832,11.328 -8.832,34.56 0,23.808 9.024,35.52 9.024,11.712 23.232,11.712 16.896,0 24.96,-14.592 2.304,-4.224 6.528,-6.72 4.224,-2.688 9.216,-2.688 7.296,0 12.48,5.376 5.376,5.184 5.376,12.672 0,5.76 -3.456,10.752 -17.664,24.192 -55.104,24.192 z"
           style="font-style:normal;font-variant:normal;font-weight:normal;font-stretch:normal;font-size:192px;font-family:Jellee;-inkscape-font-specification:Jellee;fill:url(#linearGradient6356);fill-opacity:1"
           id="path2073" />
      </g>
    </g>
    <g
       id="g7164"
       transform="matrix(0.34566325,-0.59870631,0.59870631,0.34566325,46.553206,-1019.4322)" />
    <g
       transform="matrix(1.5594927,2.7011205,-2.7011205,1.5594927,2467.9041,-478.22072)"
       id="g1335">
      <path
         inkscape:connector-curvature="0"
         id="path1276"
         transform="matrix(0.25475377,0,0,0.25475377,-306.71149,683.99286)"
         style="opacity:1;fill:#1b2f0d;fill-opacity:1;stroke:none;stroke-width:1.79813266;stroke-miterlimit:4;stroke-dasharray:none;stroke-dashoffset:0;stroke-opacity:1"
         d="m -342.56353,1151.6482 c -7.0772,0 -12.7748,5.6975 -12.7748,12.7748 0,7.0772 5.6976,12.7747 12.7748,12.7747 h 13.2842 c 7.0773,0 12.7748,-5.6975 12.7748,-12.7748 0,-7.0772 -5.6975,-12.7747 -12.7748,-12.7747 z m 0,-153.30048 c -7.0772,-2e-5 -12.7748,5.69758 -12.7748,12.77478 0,7.0772 5.6976,12.7748 12.7748,12.7748 h 13.2843 c 7.0772,0 12.7747,-5.6976 12.7747,-12.7748 0,-7.0772 -5.6975,-12.77478 -12.7747,-12.7748 z m 64.35054,10e-5 -8.85836,0.003 c -8.72831,0 -15.75512,5.69718 -15.75512,12.77438 0,7.0772 7.02681,12.775 15.75512,12.775 h 8.85836 14.96602 c 8.72832,0 15.75511,5.6976 15.75511,12.7749 -2e-5,7.0772 -7.02682,12.7744 -15.75511,12.7744 h -78.04123 -7.32203 c -8.72831,0 -15.75512,5.6977 -15.75512,12.7749 0,7.0772 7.02681,12.7749 15.75512,12.7749 h 7.32203 6.89364 c 8.72828,0 15.75511,5.6978 15.75511,12.775 0,7.0772 -7.02683,12.7745 -15.75511,12.7744 h -6.77686 -7.32202 c -8.72831,0 -15.75512,5.6977 -15.75512,12.7749 0,7.0773 7.02681,12.775 15.75512,12.775 h 7.32202 92.99861 c 8.72831,0 15.75511,5.6972 15.75512,12.7744 0,7.0772 -7.02681,12.7749 -15.75512,12.7749 h -8.92193 -10.81898 c -8.7282,0 -15.75511,5.6976 -15.75511,12.7749 0,7.0772 7.02691,12.7744 15.75511,12.7744 h 10.81898 40.33604 68.16829 c 0.62444,0 1.24701,-0.01 1.86862,-0.016 0.1154,0.01 0.23081,0.012 0.34623,0.017 50.302833,0 91.081283,-40.037 91.081262,-89.425 2.1e-5,-49.388 -40.778429,-89.42493 -91.081262,-89.42501 -0.22706,0.007 -0.45409,0.0151 -0.68109,0.0238 -8e-4,0 -0.002,3e-5 -0.003,0 -0.50883,-0.007 -1.0184,-0.0109 -1.52911,-0.0109 h -83.24395 z m 40.75566,89.42508 c 0.003,2.0372 0.0763,4.0737 0.22065,6.106 -0.14437,-2.0323 -0.21796,-4.0688 -0.22065,-6.106 z m 0.8108,11.036 c 0.13325,1.3242 0.29658,2.6454 0.48989,3.9625 -0.19331,-1.3171 -0.35664,-2.6383 -0.48989,-3.9625 z m 1.67741,9.2495 c 0.23768,1.1446 0.49819,2.2844 0.78135,3.419 -0.28316,-1.1346 -0.54367,-2.2744 -0.78135,-3.419 z m 2.61793,8.9153 c 0.31876,1.0001 15.72957,1.9947 16.08393,2.9832 -0.35436,-0.9885 -15.76517,-1.9831 -16.08393,-2.9832 z m 18.64036,8.6485 c 0.36472,0.8342 0.74234,1.6628 1.13275,2.4856 -0.39041,-0.8228 -0.76803,-1.6514 -1.13275,-2.4856 z m 4.50361,8.3054 c 0.36769,0.6478 0.74358,1.2911 1.12757,1.9297 -0.38399,-0.6386 -0.75988,-1.2819 -1.12757,-1.9297 z m -9.82333,7.6368 c 0.37594,0.5279 0.75768,1.0517 1.14515,1.5715 -0.38747,-0.5198 -0.76921,-1.0436 -1.14515,-1.5715 z m 6.0849,7.1339 c 0.34214,0.3892 0.6877,0.7754 1.03662,1.1586 -0.34892,-0.3832 -0.69448,-0.7694 -1.03662,-1.1586 z m 6.69313,6.3723 c 0.32401,0.3008 0.65027,0.5993 0.97875,0.8955 -0.32848,-0.2962 -0.65474,-0.5947 -0.97875,-0.8955 z m 7.34684,5.6859 c 0.28312,0.2137 0.56751,0.4257 0.85317,0.6361 -0.28566,-0.2104 -0.57005,-0.4224 -0.85317,-0.6361 z m 8.00933,4.9801 c 0.19145,0.1163 0.38334,0.2318 0.57567,0.3467 -0.19233,-0.1149 -0.38422,-0.2304 -0.57567,-0.3467 z m 8.25944,4.0261 c 0.16529,0.079 0.33083,0.1576 0.49661,0.2356 -0.16578,-0.078 -0.33132,-0.1566 -0.49661,-0.2356 z m 8.78138,3.2391 c 0.0818,0.03 0.1636,0.059 0.24546,0.088 -0.0819,-0.029 -0.16369,-0.059 -0.24546,-0.088 z m 8.79843,2.2665 c 0.0868,0.022 0.17359,0.043 0.26044,0.065 -0.0868,-0.022 -0.17366,-0.043 -0.26044,-0.065 z m 9.09866,1.4097 0.154,0.023 z" />
      <path
         id="path1278"
         d="m -548.98438,3869.0234 c -6.41901,0.032 -12.83422,0.3183 -19.23046,0.8594 -0.4722,-0.014 -0.94238,-0.035 -1.41797,-0.035 h -204.81765 c -26.74885,0 -48.28321,21.5347 -48.28321,48.2832 0,26.7484 21.53436,48.2832 48.28321,48.2832 h 15.24218 -22.51475 33.61133 c 26.74885,0 48.2832,21.5327 48.2832,48.2812 0,26.7489 -21.53435,48.2832 -48.2832,48.2832 h -5.55166 l -0.002,0.012 h -136.92063 c -26.74885,0 -48.2832,21.5348 -48.2832,48.2832 0,26.7485 21.53435,48.2832 48.2832,48.2832 h 147.23808 12.12305 3.3027 c 26.74885,0 48.28321,21.5328 48.28321,48.2813 0,26.7488 -21.53436,48.2832 -48.28321,48.2832 h -15.42575 -8.91601 c -26.74885,0 -48.28321,21.5347 -48.28321,48.2832 0,26.7485 21.53436,48.2812 48.28321,48.2812 h 182.63106 c 0.88706,0 1.76758,-0.027 2.64258,-0.074 5.9887,0.5234 11.99481,0.8238 18.00585,0.9004 133.7876,-3e-4 242.2438,-108.4565 242.24415,-242.2441 -2.9e-4,-133.7876 -108.45651,-242.2439 -242.24415,-242.2442 z m -535.34762,193.9668 c -26.7489,0 -48.2832,21.5348 -48.2832,48.2832 0,26.7485 21.5343,48.2832 48.2832,48.2832 h 45.1797 c 26.7484,0 48.28323,-21.5347 48.28316,-48.2832 7e-5,-26.7484 -21.53476,-48.2832 -48.28316,-48.2832 z"
         style="opacity:1;fill:url(#linearGradient1300);fill-opacity:1;stroke:none;stroke-width:2.8148098;stroke-miterlimit:4;stroke-dasharray:none;stroke-dashoffset:0;stroke-opacity:1"
         inkscape:connector-curvature="0"
         sodipodi:nodetypes="ccssssccsssccsssccssccsssscccccsssscss"
         transform="matrix(0.0674036,0,0,0.0674036,-306.71149,683.99286)" />
    </g>
    <rect
       y="-105.54419"
       x="-838.6853"
       height="290.39264"
       width="290.39264"
       id="rect1346"
       style="opacity:0.50899999;fill:#000000;fill-opacity:0;fill-rule:nonzero;stroke:#ff0000;stroke-width:2.34518576;stroke-linejoin:round;stroke-miterlimit:4;stroke-dasharray:none;stroke-dashoffset:0;stroke-opacity:1" />
    <g
       id="g1376"
       transform="translate(-334.8262,324.11459)">
      <g
         transform="matrix(3.1189853,-4.1386156e-8,4.1386156e-8,3.1189853,429.86477,-3282.1415)"
         id="g1366">
        <path
           inkscape:connector-curvature="0"
           id="path1362"
           transform="matrix(0.25475377,0,0,0.25475377,-306.71149,683.99286)"
           style="opacity:1;fill:#1b2f0d;fill-opacity:1;stroke:none;stroke-width:1.79813266;stroke-miterlimit:4;stroke-dasharray:none;stroke-dashoffset:0;stroke-opacity:1"
           d="m -342.56353,1151.6482 c -7.0772,0 -12.7748,5.6975 -12.7748,12.7748 0,7.0772 5.6976,12.7747 12.7748,12.7747 h 13.2842 c 7.0773,0 12.7748,-5.6975 12.7748,-12.7748 0,-7.0772 -5.6975,-12.7747 -12.7748,-12.7747 z m 0,-153.30048 c -7.0772,-2e-5 -12.7748,5.69758 -12.7748,12.77478 0,7.0772 5.6976,12.7748 12.7748,12.7748 h 13.2843 c 7.0772,0 12.7747,-5.6976 12.7747,-12.7748 0,-7.0772 -5.6975,-12.77478 -12.7747,-12.7748 z m 64.35054,10e-5 -8.85836,0.003 c -8.72831,0 -15.75512,5.69718 -15.75512,12.77438 0,7.0772 7.02681,12.775 15.75512,12.775 h 8.85836 14.96602 c 8.72832,0 15.75511,5.6976 15.75511,12.7749 -2e-5,7.0772 -7.02682,12.7744 -15.75511,12.7744 h -78.04123 -7.32203 c -8.72831,0 -15.75512,5.6977 -15.75512,12.7749 0,7.0772 7.02681,12.7749 15.75512,12.7749 h 7.32203 6.89364 c 8.72828,0 15.75511,5.6978 15.75511,12.775 0,7.0772 -7.02683,12.7745 -15.75511,12.7744 h -6.77686 -7.32202 c -8.72831,0 -15.75512,5.6977 -15.75512,12.7749 0,7.0773 7.02681,12.775 15.75512,12.775 h 7.32202 92.99861 c 8.72831,0 15.75511,5.6972 15.75512,12.7744 0,7.0772 -7.02681,12.7749 -15.75512,12.7749 h -8.92193 -10.81898 c -8.7282,0 -15.75511,5.6976 -15.75511,12.7749 0,7.0772 7.02691,12.7744 15.75511,12.7744 h 10.81898 40.33604 68.16829 c 0.62444,0 1.24701,-0.01 1.86862,-0.016 0.1154,0.01 0.23081,0.012 0.34623,0.017 50.302833,0 91.081283,-40.037 91.081262,-89.425 2.1e-5,-49.388 -40.778429,-89.42493 -91.081262,-89.42501 -0.22706,0.007 -0.45409,0.0151 -0.68109,0.0238 -8e-4,0 -0.002,3e-5 -0.003,0 -0.50883,-0.007 -1.0184,-0.0109 -1.52911,-0.0109 h -83.24395 z m 40.75566,89.42508 c 0.003,2.0372 0.0763,4.0737 0.22065,6.106 -0.14437,-2.0323 -0.21796,-4.0688 -0.22065,-6.106 z m 0.8108,11.036 c 0.13325,1.3242 0.29658,2.6454 0.48989,3.9625 -0.19331,-1.3171 -0.35664,-2.6383 -0.48989,-3.9625 z m 1.67741,9.2495 c 0.23768,1.1446 0.49819,2.2844 0.78135,3.419 -0.28316,-1.1346 -0.54367,-2.2744 -0.78135,-3.419 z m 2.61793,8.9153 c 0.31876,1.0001 15.72957,1.9947 16.08393,2.9832 -0.35436,-0.9885 -15.76517,-1.9831 -16.08393,-2.9832 z m 18.64036,8.6485 c 0.36472,0.8342 0.74234,1.6628 1.13275,2.4856 -0.39041,-0.8228 -0.76803,-1.6514 -1.13275,-2.4856 z m 4.50361,8.3054 c 0.36769,0.6478 0.74358,1.2911 1.12757,1.9297 -0.38399,-0.6386 -0.75988,-1.2819 -1.12757,-1.9297 z m -9.82333,7.6368 c 0.37594,0.5279 0.75768,1.0517 1.14515,1.5715 -0.38747,-0.5198 -0.76921,-1.0436 -1.14515,-1.5715 z m 6.0849,7.1339 c 0.34214,0.3892 0.6877,0.7754 1.03662,1.1586 -0.34892,-0.3832 -0.69448,-0.7694 -1.03662,-1.1586 z m 6.69313,6.3723 c 0.32401,0.3008 0.65027,0.5993 0.97875,0.8955 -0.32848,-0.2962 -0.65474,-0.5947 -0.97875,-0.8955 z m 7.34684,5.6859 c 0.28312,0.2137 0.56751,0.4257 0.85317,0.6361 -0.28566,-0.2104 -0.57005,-0.4224 -0.85317,-0.6361 z m 8.00933,4.9801 c 0.19145,0.1163 0.38334,0.2318 0.57567,0.3467 -0.19233,-0.1149 -0.38422,-0.2304 -0.57567,-0.3467 z m 8.25944,4.0261 c 0.16529,0.079 0.33083,0.1576 0.49661,0.2356 -0.16578,-0.078 -0.33132,-0.1566 -0.49661,-0.2356 z m 8.78138,3.2391 c 0.0818,0.03 0.1636,0.059 0.24546,0.088 -0.0819,-0.029 -0.16369,-0.059 -0.24546,-0.088 z m 8.79843,2.2665 c 0.0868,0.022 0.17359,0.043 0.26044,0.065 -0.0868,-0.022 -0.17366,-0.043 -0.26044,-0.065 z m 9.09866,1.4097 0.154,0.023 z" />
        <path
           id="path1364"
           d="m -548.98438,3869.0234 c -6.41901,0.032 -12.83422,0.3183 -19.23046,0.8594 -0.4722,-0.014 -0.94238,-0.035 -1.41797,-0.035 h -204.81765 c -26.74885,0 -48.28321,21.5347 -48.28321,48.2832 0,26.7484 21.53436,48.2832 48.28321,48.2832 h 15.24218 -22.51475 33.61133 c 26.74885,0 48.2832,21.5327 48.2832,48.2812 0,26.7489 -21.53435,48.2832 -48.2832,48.2832 h -5.55166 l -0.002,0.012 h -136.92063 c -26.74885,0 -48.2832,21.5348 -48.2832,48.2832 0,26.7485 21.53435,48.2832 48.2832,48.2832 h 147.23808 12.12305 3.3027 c 26.74885,0 48.28321,21.5328 48.28321,48.2813 0,26.7488 -21.53436,48.2832 -48.28321,48.2832 h -15.42575 -8.91601 c -26.74885,0 -48.28321,21.5347 -48.28321,48.2832 0,26.7485 21.53436,48.2812 48.28321,48.2812 h 182.63106 c 0.88706,0 1.76758,-0.027 2.64258,-0.074 5.9887,0.5234 11.99481,0.8238 18.00585,0.9004 133.7876,-3e-4 242.2438,-108.4565 242.24415,-242.2441 -2.9e-4,-133.7876 -108.45651,-242.2439 -242.24415,-242.2442 z m -535.34762,193.9668 c -26.7489,0 -48.2832,21.5348 -48.2832,48.2832 0,26.7485 21.5343,48.2832 48.2832,48.2832 h 45.1797 c 26.7484,0 48.28323,-21.5347 48.28316,-48.2832 7e-5,-26.7484 -21.53476,-48.2832 -48.28316,-48.2832 z"
           style="opacity:1;fill:url(#linearGradient1370);fill-opacity:1;stroke:none;stroke-width:2.8148098;stroke-miterlimit:4;stroke-dasharray:none;stroke-dashoffset:0;stroke-opacity:1"
           inkscape:connector-curvature="0"
           sodipodi:nodetypes="ccssssccsssccsssccssccsssscccccsssscss"
           transform="matrix(0.0674036,0,0,0.0674036,-306.71149,683.99286)" />
      </g>
      <rect
         y="-429.65878"
         x="-838.6853"
         height="290.39264"
         width="290.39264"
         id="rect1368"
         style="opacity:0.50899999;fill:#000000;fill-opacity:0;fill-rule:nonzero;stroke:#ff0000;stroke-width:2.34518576;stroke-linejoin:round;stroke-miterlimit:4;stroke-dasharray:none;stroke-dashoffset:0;stroke-opacity:1" />
    </g>
  </g>
</svg>
